{
  "accessors": [
    {
      "bufferView": 2,
      "componentType": 5126,
      "count": 65532,
      "max": [
        0.015105352737009525,
        0.014214126393198967,
        0.03310080245137215
      ],
      "min": [
        -0.015046468004584312,
        -0.04221421852707863,
        -0.013666125014424324
      ],
      "type": "VEC3"
    },
    {
      "bufferView": 2,
      "byteOffset": 786384,
      "componentType": 5126,
      "count": 65532,
      "max": [
        1.0,
        1.0,
        1.0
      ],
      "min": [
        -1.0,
        -1.0,
        -1.0
      ],
      "type": "VEC3"
    },
    {
      "bufferView": 3,
      "componentType": 5126,
      "count": 65532,
      "max": [
        1.0,
        1.0,
        1.0,
        1.0
      ],
      "min": [
        -1.0,
        -1.0,
        -1.0,
        1.0
      ],
      "type": "VEC4"
    },
    {
      "bufferView": 1,
      "componentType": 5126,
      "count": 65532,
      "max": [
        0.9975406527519226,
        0.9220901727676392
      ],
      "min": [
        0.10440868139266968,
        0.0024548545479774475
      ],
      "type": "VEC2"
    },
    {
      "bufferView": 0,
      "componentType": 5125,
      "count": 354168,
      "type": "SCALAR"
    },
    {
      "bufferView": 2,
      "byteOffset": 1572768,
      "componentType": 5126,
      "count": 60672,
      "max": [
        0.015105352737009525,
        0.014052900485694408,
        0.03313950449228287
      ],
      "min": [
        -0.015046468004584312,
        -0.0422140397131443,
        -0.013765249401330948
      ],
      "type": "VEC3"
    },
    {
      "bufferView": 2,
      "byteOffset": 2300832,
      "componentType": 5126,
      "count": 60672,
      "max": [
        1.0,
        1.0,
        1.0
      ],
      "min": [
        -1.0,
        -1.0,
        -1.0
      ],
      "type": "VEC3"
    },
    {
      "bufferView": 3,
      "byteOffset": 1048512,
      "componentType": 5126,
      "count": 60672,
      "max": [
        1.0,
        1.0,
        1.0,
        1.0
      ],
      "min": [
        -1.0,
        -1.0,
        -1.0,
        1.0
      ],
      "type": "VEC4"
    },
    {
      "bufferView": 1,
      "byteOffset": 524256,
      "componentType": 5126,
      "count": 60672,
      "max": [
        0.9975406527519226,
        0.9608778357505798
      ],
      "min": [
        0.002455413341522217,
        0.002454608678817749
      ],
      "type": "VEC2"
    },
    {
      "bufferView": 0,
      "byteOffset": 1416672,
      "componentType": 5125,
      "count": 318600,
      "type": "SCALAR"
    },
    {
      "bufferView": 2,
      "byteOffset": 3028896,
      "componentType": 5126,
      "count": 41899,
      "max": [
        0.026295576244592667,
        0.04334382340312004,
        0.02470041811466217
      ],
      "min": [
        -0.026295576244592667,
        0.016935687512159348,
        -0.02470041811466217
      ],
      "type": "VEC3"
    },
    {
      "bufferView": 2,
      "byteOffset": 3531684,
      "componentType": 5126,
      "count": 41899,
      "max": [
        1.0,
        1.0,
        0.9999999403953552
      ],
      "min": [
        -1.0,
        -0.999993622303009,
        -1.0
      ],
      "type": "VEC3"
    },
    {
      "bufferView": 3,
      "byteOffset": 2019264,
      "componentType": 5126,
      "count": 41899,
      "max": [
        1.0,
        1.0,
        1.0,
        1.0
      ],
      "min": [
        -1.0,
        -1.0,
        -1.0,
        -1.0
      ],
      "type": "VEC4"
    },
    {
      "bufferView": 1,
      "byteOffset": 1009632,
      "componentType": 5126,
      "count": 41899,
      "max": [
        0.9690420031547546,
        0.9003227353096008
      ],
      "min": [
        0.0024574995040893555,
        0.002454649657011032
      ],
      "type": "VEC2"
    },
    {
      "bufferView": 0,
      "byteOffset": 2691072,
      "componentType": 5125,
      "count": 218688,
      "type": "SCALAR"
    },
    {
      "bufferView": 2,
      "byteOffset": 4034472,
      "componentType": 5126,
      "count": 5288,
      "max": [
        0.005733957514166832,
        0.016935691237449646,
        0.005734514910727739
      ],
      "min": [
        -0.005736684426665306,
        0.014214123599231243,
        -0.005737352650612593
      ],
      "type": "VEC3"
    },
    {
      "bufferView": 2,
      "byteOffset": 4097928,
      "componentType": 5126,
      "count": 5288,
      "max": [
        1.0,
        0.6806787848472595,
        1.0
      ],
      "min": [
        -1.0,
        -0.6274357438087463,
        -1.0
      ],
      "type": "VEC3"
    },
    {
      "bufferView": 3,
      "byteOffset": 2689648,
      "componentType": 5126,
      "count": 5288,
      "max": [
        0.6435205340385437,
        -0.7307024598121643,
        0.6747312545776367,
        1.0
      ],
      "min": [
        -0.6446688175201416,
        -1.0,
        -0.6539978384971619,
        1.0
      ],
      "type": "VEC4"
    },
    {
      "bufferView": 1,
      "byteOffset": 1344824,
      "componentType": 5126,
      "count": 5288,
      "max": [
        0.8720003366470337,
        0.24147829413414001
      ],
      "min": [
        0.8530897498130798,
        0.00245511531829834
      ],
      "type": "VEC2"
    },
    {
      "bufferView": 0,
      "byteOffset": 3565824,
      "componentType": 5125,
      "count": 27648,
      "type": "SCALAR"
    },
    {
      "bufferView": 2,
      "byteOffset": 4161384,
      "componentType": 5126,
      "count": 1583,
      "max": [
        0.07582901418209076,
        0.21942129731178284,
        0.07582899928092957
      ],
      "min": [
        -0.07582901418209076,
        -0.21942129731178284,
        -0.07582899928092957
      ],
      "type": "VEC3"
    },
    {
      "bufferView": 2,
      "byteOffset": 4180380,
      "componentType": 5126,
      "count": 1583,
      "max": [
        0.9987955093383789,
        0.9999958872795105,
        0.9987953305244446
      ],
      "min": [
        -0.9987954497337341,
        -0.9988598227500916,
        -0.9987954497337341
      ],
      "type": "VEC3"
    },
    {
      "bufferView": 1,
      "byteOffset": 1387128,
      "componentType": 5126,
      "count": 1583,
      "max": [
        0.9893945455551147,
        0.997614324092865
      ],
      "min": [
        0.002265418414026499,
        0.0023801270872354507
      ],
      "type": "VEC2"
    },
    {
      "bufferView": 0,
      "byteOffset": 3676416,
      "componentType": 5125,
      "count": 7578,
      "type": "SCALAR"
    }
  ],
  "asset": {
    "extras": {
      "author": "avkpiter (https://sketchfab.com/avkpiter)",
      "license": "CC-BY-4.0 (http://creativecommons.org/licenses/by/4.0/)",
      "source": "https://sketchfab.com/3d-models/oxygen-ballon-fd4adafc110d446b9e5c9866a1901cda",
      "title": "Oxygen ballon"
    },
    "generator": "Sketchfab-12.82.3",
    "version": "2.0"
  },
  "bufferViews": [
    {
      "buffer": 0,
      "byteLength": 3706728,
      "name": "floatBufferViews",
      "target": 34963
    },
    {
      "buffer": 0,
      "byteLength": 1399792,
      "byteOffset": 3706728,
      "byteStride": 8,
      "name": "floatBufferViews",
      "target": 34962
    },
    {
      "buffer": 0,
      "byteLength": 4199376,
      "byteOffset": 5106520,
      "byteStride": 12,
      "name": "floatBufferViews",
      "target": 34962
    },
    {
      "buffer": 0,
      "byteLength": 2774256,
      "byteOffset": 9305896,
      "byteStride": 16,
      "name": "floatBufferViews",
      "target": 34962
    }
  ],
  "buffers": [
    {
      "byteLength": 12080152,
      "uri": "scene.bin"
    }
  ],
  "images": [
    {
      "uri": "textures/Metal_Yellow_baseColor.png"
    },
    {
      "uri": "textures/Metal_Yellow_metallicRoughness.png"
    },
    {
      "uri": "textures/Metal_Yellow_normal.png"
    },
    {
      "uri": "textures/Handle_baseColor.png"
    },
    {
      "uri": "textures/Handle_metallicRoughness.png"
    },
    {
      "uri": "textures/Handle_normal.png"
    },
    {
      "uri": "textures/Metal_White_baseColor.png"
    },
    {
      "uri": "textures/Metal_White_metallicRoughness.png"
    },
    {
      "uri": "textures/Metal_White_normal.png"
    },
    {
      "uri": "textures/Ballon_baseColor.png"
    },
    {
      "uri": "textures/Ballon_metallicRoughness.png"
    }
  ],
  "materials": [
    {
      "doubleSided": true,
      "name": "Metal_Yellow",
      "normalTexture": {
        "index": 2
      },
      "pbrMetallicRoughness": {
        "baseColorTexture": {
          "index": 0
        },
        "metallicRoughnessTexture": {
          "index": 1
        }
      }
    },
    {
      "doubleSided": true,
      "name": "Handle",
      "normalTexture": {
        "index": 5
      },
      "pbrMetallicRoughness": {
        "baseColorTexture": {
          "index": 3
        },
        "metallicRoughnessTexture": {
          "index": 4
        }
      }
    },
    {
      "doubleSided": true,
      "name": "Metal_White",
      "normalTexture": {
        "index": 8
      },
      "pbrMetallicRoughness": {
        "baseColorTexture": {
          "index": 6
        },
        "metallicRoughnessTexture": {
          "index": 7
        }
      }
    },
    {
      "doubleSided": true,
      "name": "Ballon",
      "pbrMetallicRoughness": {
        "baseColorTexture": {
          "index": 9
        },
        "metallicRoughnessTexture": {
          "index": 10
        }
      }
    }
  ],
  "meshes": [
    {
      "name": "Object_0",
      "primitives": [
        {
          "attributes": {
            "NORMAL": 1,
            "POSITION": 0,
            "TANGENT": 2,
            "TEXCOORD_0": 3
          },
          "indices": 4,
          "material": 0,
          "mode": 4
        }
      ]
    },
    {
      "name": "Object_1",
      "primitives": [
        {
          "attributes": {
            "NORMAL": 6,
            "POSITION": 5,
            "TANGENT": 7,
            "TEXCOORD_0": 8
          },
          "indices": 9,
          "material": 0,
          "mode": 4
        }
      ]
    },
    {
      "name": "Object_2",
      "primitives": [
        {
          "attributes": {
            "NORMAL": 11,
            "POSITION": 10,
            "TANGENT": 12,
            "TEXCOORD_0": 13
          },
          "indices": 14,
          "material": 1,
          "mode": 4
        }
      ]
    },
    {
      "name": "Object_3",
      "primitives": [
        {
          "attributes": {
            "NORMAL": 16,
            "POSITION": 15,
            "TANGENT": 17,
            "TEXCOORD_0": 18
          },
          "indices": 19,
          "material": 2,
          "mode": 4
        }
      ]
    },
    {
      "name": "Object_4",
      "primitives": [
        {
          "attributes": {
            "NORMAL": 21,
            "POSITION": 20,
            "TEXCOORD_0": 22
          },
          "indices": 23,
          "material": 3,
          "mode": 4
        }
      ]
    }
  ],
  "nodes": [
    {
      "children": [
        1
      ],
      "matrix": [
        1.0,
        0.0,
        0.0,
        0.0,
        0.0,
        2.220446049250313e-16,
        -1.0,
        0.0,
        0.0,
        1.0,
        2.220446049250313e-16,
        0.0,
        0.0,
        0.0,
        0.0,
        1.0
      ],
      "name": "Sketchfab_model"
    },
    {
      "children": [
        2
      ],
      "name": "root"
    },
    {
      "children": [
        3,
        8
      ],
      "matrix": [
        1.0,
        0.0,
        0.0,
        0.0,
        0.0,
        2.220446049250313e-16,
        1.0,
        0.0,
        0.0,
        -1.0,
        2.220446049250313e-16,
        0.0,
        0.0,
        0.0,
        0.0,
        1.0
      ],
      "name": "GLTF_SceneRootNode"
    },
    {
      "children": [
        4,
        5,
        6,
        7
      ],
      "matrix": [
        1.0,
        0.0,
        0.0,
        0.0,
        0.0,
        1.0,
        0.0,
        0.0,
        0.0,
        0.0,
        1.0,
        0.0,
        0.0,
        0.35737723112106323,
        0.0,
        1.0
      ],
      "name": "Cylinder_0"
    },
    {
      "mesh": 0,
      "name": "Object_4"
    },
    {
      "mesh": 1,
      "name": "Object_5"
    },
    {
      "mesh": 2,
      "name": "Object_6"
    },
    {
      "mesh": 3,
      "name": "Object_7"
    },
    {
      "children": [
        9
      ],
      "matrix": [
        1.0,
        0.0,
        0.0,
        0.0,
        0.0,
        1.0,
        0.0,
        0.0,
        0.0,
        0.0,
        1.0,
        0.0,
        0.0,
        0.10718397051095963,
        0.0,
        1.0
      ],
      "name": "Body_1"
    },
    {
      "mesh": 4,
      "name": "Object_9"
    }
  ],
  "samplers": [
    {
      "magFilter": 9729,
      "minFilter": 9987,
      "wrapS": 10497,
      "wrapT": 10497
    }
  ],
  "scene": 0,
  "scenes": [
    {
      "name": "Sketchfab_Scene",
      "nodes": [
        0
      ]
    }
  ],
  "textures": [
    {
      "sampler": 0,
      "source": 0
    },
    {
      "sampler": 0,
      "source": 1
    },
    {
      "sampler": 0,
      "source": 2
    },
    {
      "sampler": 0,
      "source": 3
    },
    {
      "sampler": 0,
      "source": 4
    },
    {
      "sampler": 0,
      "source": 5
    },
    {
      "sampler": 0,
      "source": 6
    },
    {
      "sampler": 0,
      "source": 7
    },
    {
      "sampler": 0,
      "source": 8
    },
    {
      "sampler": 0,
      "source": 9
    },
    {
      "sampler": 0,
      "source": 10
    }
  ]
}
