{
  "accessors": [
    {
      "bufferView": 2,
      "componentType": 5126,
      "count": 242,
      "max": [
        0.8765031099319458,
        4.2978363037109375,
        0.8765031099319458
      ],
      "min": [
        -0.8765031099319458,
        0.07093155384063721,
        -0.8765031099319458
      ],
      "type": "VEC3"
    },
    {
      "bufferView": 2,
      "byteOffset": 2904,
      "componentType": 5126,
      "count": 242,
      "max": [
        0.9659258723258972,
        1.0,
        0.9659258723258972
      ],
      "min": [
        -0.9659258723258972,
        -1.0,
        -0.9659258723258972
      ],
      "type": "VEC3"
    },
    {
      "bufferView": 1,
      "componentType": 5126,
      "count": 242,
      "max": [
        0.65625,
        1.0
      ],
      "min": [
        0.34375,
        0.0
      ],
      "type": "VEC2"
    },
    {
      "bufferView": 0,
      "componentType": 5125,
      "count": 792,
      "type": "SCALAR"
    },
    {
      "bufferView": 2,
      "byteOffset": 5808,
      "componentType": 5126,
      "count": 66,
      "max": [
        0.20504742860794067,
        4.8498430252075195,
        0.20296037197113037
      ],
      "min": [
        -0.19674158096313477,
        4.180790901184082,
        -0.20296037197113037
      ],
      "type": "VEC3"
    },
    {
      "bufferView": 2,
      "byteOffset": 6600,
      "componentType": 5126,
      "count": 66,
      "max": [
        0.959493100643158,
        1.0,
        0.9898214936256409
      ],
      "min": [
        -1.0,
        -1.0,
        -0.9898214340209961
      ],
      "type": "VEC3"
    },
    {
      "bufferView": 1,
      "byteOffset": 1936,
      "componentType": 5126,
      "count": 66,
      "max": [
        0.65625,
        0.9984095692634583
      ],
      "min": [
        0.3500792384147644,
        0.001590430736541748
      ],
      "type": "VEC2"
    },
    {
      "bufferView": 0,
      "byteOffset": 3168,
      "componentType": 5125,
      "count": 120,
      "type": "SCALAR"
    },
    {
      "bufferView": 2,
      "byteOffset": 7392,
      "componentType": 5126,
      "count": 66,
      "max": [
        0.09259968996047974,
        5.507550239562988,
        0.03670996427536011
      ],
      "min": [
        -0.08884871006011963,
        5.112033843994141,
        -0.14660429954528809
      ],
      "type": "VEC3"
    },
    {
      "bufferView": 2,
      "byteOffset": 8184,
      "componentType": 5126,
      "count": 66,
      "max": [
        0.9594929814338684,
        1.0,
        0.9898215532302856
      ],
      "min": [
        -1.0,
        -1.0,
        -0.9898213744163513
      ],
      "type": "VEC3"
    },
    {
      "bufferView": 1,
      "byteOffset": 2464,
      "componentType": 5126,
      "count": 66,
      "max": [
        0.65625,
        0.9984095692634583
      ],
      "min": [
        0.3500792384147644,
        0.001590430736541748
      ],
      "type": "VEC2"
    },
    {
      "bufferView": 0,
      "byteOffset": 3648,
      "componentType": 5125,
      "count": 120,
      "type": "SCALAR"
    },
    {
      "bufferView": 2,
      "byteOffset": 8976,
      "componentType": 5126,
      "count": 66,
      "max": [
        0.09259968996047974,
        5.429152965545654,
        -0.0479048490524292
      ],
      "min": [
        -0.08884871006011963,
        5.11112117767334,
        -0.2312191128730774
      ],
      "type": "VEC3"
    },
    {
      "bufferView": 2,
      "byteOffset": 9768,
      "componentType": 5126,
      "count": 66,
      "max": [
        0.9594929218292236,
        1.0,
        0.9898215532302856
      ],
      "min": [
        -1.0,
        -1.0,
        -0.9898214340209961
      ],
      "type": "VEC3"
    },
    {
      "bufferView": 1,
      "byteOffset": 2992,
      "componentType": 5126,
      "count": 66,
      "max": [
        0.65625,
        0.9984095692634583
      ],
      "min": [
        0.3500792384147644,
        0.001590430736541748
      ],
      "type": "VEC2"
    },
    {
      "bufferView": 0,
      "byteOffset": 4128,
      "componentType": 5125,
      "count": 120,
      "type": "SCALAR"
    },
    {
      "bufferView": 2,
      "byteOffset": 10560,
      "componentType": 5126,
      "count": 176,
      "max": [
        0.533196210861206,
        5.031383991241455,
        0.5240324139595032
      ],
      "min": [
        -0.5089064240455627,
        4.771345615386963,
        -0.5335526466369629
      ],
      "type": "VEC3"
    },
    {
      "bufferView": 2,
      "byteOffset": 12672,
      "componentType": 5126,
      "count": 176,
      "max": [
        0.7573717832565308,
        0.989818274974823,
        0.7796419858932495
      ],
      "min": [
        -0.7984105944633484,
        -0.9898008108139038,
        -0.7531481385231018
      ],
      "type": "VEC3"
    },
    {
      "bufferView": 1,
      "byteOffset": 3520,
      "componentType": 5126,
      "count": 176,
      "max": [
        0.65625,
        0.9984095692634583
      ],
      "min": [
        0.3500792384147644,
        0.001590430736541748
      ],
      "type": "VEC2"
    },
    {
      "bufferView": 0,
      "byteOffset": 4608,
      "componentType": 5125,
      "count": 372,
      "type": "SCALAR"
    },
    {
      "bufferView": 2,
      "byteOffset": 14784,
      "componentType": 5126,
      "count": 66,
      "max": [
        0.09259968996047974,
        5.458611965179443,
        0.03670996427536011
      ],
      "min": [
        -0.08884871006011963,
        5.20595645904541,
        -0.14660429954528809
      ],
      "type": "VEC3"
    },
    {
      "bufferView": 2,
      "byteOffset": 15576,
      "componentType": 5126,
      "count": 66,
      "max": [
        0.9594929814338684,
        1.0,
        0.9898215532302856
      ],
      "min": [
        -1.0,
        -1.0,
        -0.9898214340209961
      ],
      "type": "VEC3"
    },
    {
      "bufferView": 1,
      "byteOffset": 4928,
      "componentType": 5126,
      "count": 66,
      "max": [
        0.65625,
        0.9984095692634583
      ],
      "min": [
        0.3500792384147644,
        0.001590430736541748
      ],
      "type": "VEC2"
    },
    {
      "bufferView": 0,
      "byteOffset": 6096,
      "componentType": 5125,
      "count": 120,
      "type": "SCALAR"
    },
    {
      "bufferView": 2,
      "byteOffset": 16368,
      "componentType": 5126,
      "count": 66,
      "max": [
        0.09259968996047974,
        5.129638671875,
        0.03670996427536011
      ],
      "min": [
        -0.08884871006011963,
        4.876983165740967,
        -0.14660429954528809
      ],
      "type": "VEC3"
    },
    {
      "bufferView": 2,
      "byteOffset": 17160,
      "componentType": 5126,
      "count": 66,
      "max": [
        0.9594929814338684,
        1.0,
        0.9898215532302856
      ],
      "min": [
        -1.0,
        -1.0,
        -0.9898214340209961
      ],
      "type": "VEC3"
    },
    {
      "bufferView": 1,
      "byteOffset": 5456,
      "componentType": 5126,
      "count": 66,
      "max": [
        0.65625,
        0.9984095692634583
      ],
      "min": [
        0.3500792384147644,
        0.001590430736541748
      ],
      "type": "VEC2"
    },
    {
      "bufferView": 0,
      "byteOffset": 6576,
      "componentType": 5125,
      "count": 120,
      "type": "SCALAR"
    },
    {
      "bufferView": 2,
      "byteOffset": 17952,
      "componentType": 5126,
      "count": 66,
      "max": [
        0.07716149091720581,
        5.444182395935059,
        0.021428942680358887
      ],
      "min": [
        -0.07403594255447388,
        5.131841659545898,
        -0.13132327795028687
      ],
      "type": "VEC3"
    },
    {
      "bufferView": 2,
      "byteOffset": 18744,
      "componentType": 5126,
      "count": 66,
      "max": [
        0.9594930410385132,
        1.0,
        0.9898213744163513
      ],
      "min": [
        -1.0,
        -1.0,
        -0.9898213744163513
      ],
      "type": "VEC3"
    },
    {
      "bufferView": 1,
      "byteOffset": 5984,
      "componentType": 5126,
      "count": 66,
      "max": [
        0.65625,
        0.9984095692634583
      ],
      "min": [
        0.3500792384147644,
        0.001590430736541748
      ],
      "type": "VEC2"
    },
    {
      "bufferView": 0,
      "byteOffset": 7056,
      "componentType": 5125,
      "count": 120,
      "type": "SCALAR"
    }
  ],
  "asset": {
    "extras": {
      "author": "Revilo (https://sketchfab.com/Revillo_)",
      "license": "CC-BY-4.0 (http://creativecommons.org/licenses/by/4.0/)",
      "source": "https://sketchfab.com/3d-models/oxegen-tank-the-mystery-of-stalore-9-c6af0b0a94f3486c9d3333427fb9df80",
      "title": "Oxegen Tank - The Mystery of Stalore-9"
    },
    "generator": "Sketchfab-12.67.0",
    "version": "2.0"
  },
  "bufferViews": [
    {
      "buffer": 0,
      "byteLength": 7536,
      "name": "floatBufferViews",
      "target": 34963
    },
    {
      "buffer": 0,
      "byteLength": 6512,
      "byteOffset": 7536,
      "byteStride": 8,
      "name": "floatBufferViews",
      "target": 34962
    },
    {
      "buffer": 0,
      "byteLength": 19536,
      "byteOffset": 14048,
      "byteStride": 12,
      "name": "floatBufferViews",
      "target": 34962
    }
  ],
  "buffers": [
    {
      "byteLength": 33584,
      "uri": "scene.bin"
    }
  ],
  "materials": [
    {
      "doubleSided": true,
      "name": "yellow",
      "pbrMetallicRoughness": {
        "baseColorFactor": [
          1.0,
          0.9378509999999995,
          0.19199999999999995,
          1.0
        ],
        "roughnessFactor": 0.6
      }
    },
    {
      "doubleSided": true,
      "name": "white_metal",
      "pbrMetallicRoughness": {
        "baseColorFactor": [
          0.9988584474885845,
          0.9988584474885845,
          0.9988584474885845,
          1.0
        ],
        "roughnessFactor": 0.6
      }
    },
    {
      "doubleSided": true,
      "name": "blinn1",
      "pbrMetallicRoughness": {
        "baseColorFactor": [
          0.16753290133703008,
          0.16753290133703008,
          0.16753290133703008,
          1.0
        ],
        "metallicFactor": 0.0,
        "roughnessFactor": 0.9207483816249483
      }
    }
  ],
  "meshes": [
    {
      "name": "pCylinder2_yellow_0",
      "primitives": [
        {
          "attributes": {
            "NORMAL": 1,
            "POSITION": 0,
            "TEXCOORD_0": 2
          },
          "indices": 3,
          "material": 0,
          "mode": 4
        }
      ]
    },
    {
      "name": "pCylinder3_white_metal_0",
      "primitives": [
        {
          "attributes": {
            "NORMAL": 5,
            "POSITION": 4,
            "TEXCOORD_0": 6
          },
          "indices": 7,
          "material": 1,
          "mode": 4
        }
      ]
    },
    {
      "name": "pasted__pCylinder3_white_metal_0",
      "primitives": [
        {
          "attributes": {
            "NORMAL": 9,
            "POSITION": 8,
            "TEXCOORD_0": 10
          },
          "indices": 11,
          "material": 1,
          "mode": 4
        }
      ]
    },
    {
      "name": "pasted__pasted__pCylinder3_white_metal_0",
      "primitives": [
        {
          "attributes": {
            "NORMAL": 13,
            "POSITION": 12,
            "TEXCOORD_0": 14
          },
          "indices": 15,
          "material": 1,
          "mode": 4
        }
      ]
    },
    {
      "name": "pasted__pasted__pasted__pCylinder3_white_metal_0",
      "primitives": [
        {
          "attributes": {
            "NORMAL": 17,
            "POSITION": 16,
            "TEXCOORD_0": 18
          },
          "indices": 19,
          "material": 1,
          "mode": 4
        }
      ]
    },
    {
      "name": "pasted__pasted__pCylinder3_blinn1_0",
      "primitives": [
        {
          "attributes": {
            "NORMAL": 21,
            "POSITION": 20,
            "TEXCOORD_0": 22
          },
          "indices": 23,
          "material": 2,
          "mode": 4
        }
      ]
    },
    {
      "name": "pasted__pasted__pasted__pCylinder3_blinn1_0",
      "primitives": [
        {
          "attributes": {
            "NORMAL": 25,
            "POSITION": 24,
            "TEXCOORD_0": 26
          },
          "indices": 27,
          "material": 2,
          "mode": 4
        }
      ]
    },
    {
      "name": "pasted__pasted__pasted__pCylinder3_blinn1_0",
      "primitives": [
        {
          "attributes": {
            "NORMAL": 29,
            "POSITION": 28,
            "TEXCOORD_0": 30
          },
          "indices": 31,
          "material": 2,
          "mode": 4
        }
      ]
    }
  ],
  "nodes": [
    {
      "children": [
        1
      ],
      "matrix": [
        1.0,
        0.0,
        0.0,
        0.0,
        0.0,
        2.220446049250313e-16,
        -1.0,
        0.0,
        0.0,
        1.0,
        2.220446049250313e-16,
        0.0,
        0.0,
        0.0,
        0.0,
        1.0
      ],
      "name": "Sketchfab_model"
    },
    {
      "children": [
        2
      ],
      "matrix": [
        1.0,
        0.0,
        0.0,
        0.0,
        0.0,
        0.0,
        1.0,
        0.0,
        0.0,
        -1.0,
        0.0,
        0.0,
        0.0,
        0.0,
        0.0,
        1.0
      ],
      "name": "e8b813a9e90c4623b5588114f98b05cf.fbx"
    },
    {
      "children": [
        3,
        5,
        7,
        10,
        14,
        16,
        20,
        25
      ],
      "name": "RootNode"
    },
    {
      "children": [
        4
      ],
      "name": "pCylinder2"
    },
    {
      "mesh": 0,
      "name": "pCylinder2_yellow_0"
    },
    {
      "children": [
        6
      ],
      "name": "pCylinder3"
    },
    {
      "mesh": 1,
      "name": "pCylinder3_white_metal_0"
    },
    {
      "children": [
        8
      ],
      "matrix": [
        1.0,
        0.0,
        0.0,
        0.0,
        0.0,
        -2.220446049250313e-16,
        -1.0,
        0.0,
        0.0,
        1.0,
        -2.220446049250313e-16,
        0.0,
        0.0,
        4.515316963195801,
        5.545620441436768,
        1.0
      ],
      "name": "group"
    },
    {
      "children": [
        9
      ],
      "name": "pasted__pCylinder3"
    },
    {
      "mesh": 2,
      "name": "pasted__pCylinder3_white_metal_0"
    },
    {
      "children": [
        11
      ],
      "matrix": [
        1.0,
        0.0,
        0.0,
        0.0,
        0.0,
        1.0,
        0.0,
        0.0,
        0.0,
        0.0,
        1.0777226686477661,
        0.0,
        0.0,
        0.2508794069290161,
        -0.5509681701660156,
        1.0
      ],
      "name": "group1"
    },
    {
      "children": [
        12
      ],
      "matrix": [
        1.0,
        0.0,
        0.0,
        0.0,
        0.0,
        -2.220446049250313e-16,
        -1.0,
        0.0,
        0.0,
        1.0,
        -2.220446049250313e-16,
        0.0,
        0.0,
        4.515316963195801,
        5.545620441436768,
        1.0
      ],
      "name": "pasted__group"
    },
    {
      "children": [
        13
      ],
      "name": "pasted__pasted__pCylinder3"
    },
    {
      "mesh": 3,
      "name": "pasted__pasted__pCylinder3_white_metal_0"
    },
    {
      "children": [
        15
      ],
      "name": "pasted__pasted__pasted__pCylinder3"
    },
    {
      "mesh": 4,
      "name": "pasted__pasted__pasted__pCylinder3_white_metal_0"
    },
    {
      "children": [
        17
      ],
      "matrix": [
        1.2474397420883179,
        0.0,
        0.0,
        0.0,
        0.0,
        1.2474397420883179,
        0.0,
        0.0,
        0.0,
        0.0,
        0.38560575246810913,
        0.0,
        -0.0004640647675842047,
        -1.103672981262207,
        0.33660170435905457,
        1.0
      ],
      "name": "group5"
    },
    {
      "children": [
        18
      ],
      "matrix": [
        1.0,
        0.0,
        0.0,
        0.0,
        0.0,
        -2.220446049250313e-16,
        -1.0,
        0.0,
        0.0,
        1.0,
        -2.220446049250313e-16,
        0.0,
        0.0,
        4.515316963195801,
        5.545620441436768,
        1.0
      ],
      "name": "pasted__group"
    },
    {
      "children": [
        19
      ],
      "matrix": [
        1.0,
        0.0,
        0.0,
        0.0,
        0.0,
        1.0,
        -4.930380657631324e-32,
        0.0,
        0.0,
        4.930380657631324e-32,
        1.0,
        0.0,
        0.0,
        0.0,
        0.0,
        1.0
      ],
      "name": "pasted__pasted__pCylinder3"
    },
    {
      "mesh": 5,
      "name": "pasted__pasted__pCylinder3_blinn1_0"
    },
    {
      "children": [
        21
      ],
      "matrix": [
        1.0,
        0.0,
        0.0,
        0.0,
        0.0,
        1.0,
        0.0,
        0.0,
        0.0,
        0.0,
        1.0,
        0.0,
        0.0,
        0.15937528014183044,
        -0.8453922867774963,
        1.0
      ],
      "name": "group6"
    },
    {
      "children": [
        22
      ],
      "matrix": [
        1.2474397420883179,
        0.0,
        0.0,
        0.0,
        0.0,
        1.2474397420883179,
        0.0,
        0.0,
        0.0,
        0.0,
        0.38560575246810913,
        0.0,
        -0.0004640647675842047,
        -1.103672981262207,
        0.33660170435905457,
        1.0
      ],
      "name": "pasted__group5"
    },
    {
      "children": [
        23
      ],
      "matrix": [
        1.0,
        0.0,
        0.0,
        0.0,
        0.0,
        -2.220446049250313e-16,
        -1.0,
        0.0,
        0.0,
        1.0,
        -2.220446049250313e-16,
        0.0,
        0.0,
        4.515316963195801,
        5.545620441436768,
        1.0
      ],
      "name": "pasted__pasted__group"
    },
    {
      "children": [
        24
      ],
      "matrix": [
        1.0,
        0.0,
        0.0,
        0.0,
        0.0,
        1.0,
        -4.930380657631324e-32,
        0.0,
        0.0,
        4.930380657631324e-32,
        1.0,
        0.0,
        0.0,
        0.0,
        0.0,
        1.0
      ],
      "name": "pasted__pasted__pasted__pCylinder3"
    },
    {
      "mesh": 6,
      "name": "pasted__pasted__pasted__pCylinder3_blinn1_0"
    },
    {
      "children": [
        26
      ],
      "matrix": [
        1.0,
        0.0,
        0.0,
        0.0,
        -0.0,
        -2.220446049250313e-16,
        -1.0,
        0.0,
        0.0,
        1.0,
        -2.220446049250313e-16,
        0.0,
        -0.008217951282858849,
        4.636386871337891,
        4.469222068786621,
        1.0
      ],
      "name": "group7"
    },
    {
      "children": [
        27
      ],
      "matrix": [
        1.2474397420883179,
        0.0,
        0.0,
        0.0,
        0.0,
        1.2474397420883179,
        0.0,
        0.0,
        0.0,
        0.0,
        0.38560575246810913,
        0.0,
        -0.0004640647675842047,
        -1.103672981262207,
        0.33660170435905457,
        1.0
      ],
      "name": "pasted__group5"
    },
    {
      "children": [
        28
      ],
      "matrix": [
        1.0,
        0.0,
        0.0,
        0.0,
        0.0,
        -2.220446049250313e-16,
        -1.0,
        0.0,
        0.0,
        1.0,
        -2.220446049250313e-16,
        0.0,
        0.0,
        4.515316963195801,
        5.545620441436768,
        1.0
      ],
      "name": "pasted__pasted__group"
    },
    {
      "children": [
        29
      ],
      "name": "pasted__pasted__pasted__pCylinder3"
    },
    {
      "mesh": 7,
      "name": "pasted__pasted__pasted__pCylinder3_blinn1_0"
    }
  ],
  "scene": 0,
  "scenes": [
    {
      "name": "Sketchfab_Scene",
      "nodes": [
        0
      ]
    }
  ]
}
