{
  "accessors": [
    {
      "bufferView": 2,
      "componentType": 5126,
      "count": 192,
      "max": [
        1.0,
        1.0,
        1.0
      ],
      "min": [
        -1.0,
        -1.0,
        -1.0
      ],
      "type": "VEC3"
    },
    {
      "bufferView": 2,
      "byteOffset": 2304,
      "componentType": 5126,
      "count": 192,
      "max": [
        0.9951847195625305,
        0.9951848387718201,
        1.0
      ],
      "min": [
        -0.9951847195625305,
        -0.9951848387718201,
        -1.0
      ],
      "type": "VEC3"
    },
    {
      "bufferView": 1,
      "componentType": 5126,
      "count": 192,
      "max": [
        0.9490880370140076,
        0.9495971202850342
      ],
      "min": [
        0.01000000536441803,
        0.01000000536441803
      ],
      "type": "VEC2"
    },
    {
      "bufferView": 0,
      "componentType": 5125,
      "count": 372,
      "type": "SCALAR"
    },
    {
      "bufferView": 2,
      "byteOffset": 4608,
      "componentType": 5126,
      "count": 1056,
      "max": [
        0.9999997019767761,
        0.9999987483024597,
        1.5003786087036133
      ],
      "min": [
        -0.9999990463256836,
        -0.9999994039535522,
        -4.371138828673793e-08
      ],
      "type": "VEC3"
    },
    {
      "bufferView": 2,
      "byteOffset": 17280,
      "componentType": 5126,
      "count": 1056,
      "max": [
        0.9951847791671753,
        0.9951847195625305,
        1.0
      ],
      "min": [
        -0.9951847791671753,
        -0.9951847791671753,
        -4.686718568791548e-08
      ],
      "type": "VEC3"
    },
    {
      "bufferView": 1,
      "byteOffset": 1536,
      "componentType": 5126,
      "count": 1056,
      "max": [
        1.0000001192092896,
        0.9375000596046448
      ],
      "min": [
        0.0,
        0.5
      ],
      "type": "VEC2"
    },
    {
      "bufferView": 0,
      "byteOffset": 1488,
      "componentType": 5125,
      "count": 1626,
      "type": "SCALAR"
    },
    {
      "bufferView": 2,
      "byteOffset": 29952,
      "componentType": 5126,
      "count": 384,
      "max": [
        1.0,
        1.0,
        1.2679121494293213
      ],
      "min": [
        -1.0,
        -1.0,
        -1.0
      ],
      "type": "VEC3"
    },
    {
      "bufferView": 2,
      "byteOffset": 34560,
      "componentType": 5126,
      "count": 384,
      "max": [
        0.9951848387718201,
        0.9951848983764648,
        1.0
      ],
      "min": [
        -0.9951848983764648,
        -0.9951848387718201,
        -1.0
      ],
      "type": "VEC3"
    },
    {
      "bufferView": 1,
      "byteOffset": 9984,
      "componentType": 5126,
      "count": 384,
      "max": [
        1.0,
        1.0
      ],
      "min": [
        0.0,
        0.01000000536441803
      ],
      "type": "VEC2"
    },
    {
      "bufferView": 0,
      "byteOffset": 7992,
      "componentType": 5125,
      "count": 756,
      "type": "SCALAR"
    },
    {
      "bufferView": 2,
      "byteOffset": 39168,
      "componentType": 5126,
      "count": 212,
      "max": [
        1.0,
        1.0,
        0.05078280717134476
      ],
      "min": [
        -1.0,
        -1.0,
        0.0
      ],
      "type": "VEC3"
    },
    {
      "bufferView": 2,
      "byteOffset": 41712,
      "componentType": 5126,
      "count": 212,
      "max": [
        1.0,
        1.0,
        1.0
      ],
      "min": [
        -1.0,
        -1.0,
        -1.0
      ],
      "type": "VEC3"
    },
    {
      "bufferView": 1,
      "byteOffset": 13056,
      "componentType": 5126,
      "count": 212,
      "max": [
        1.0,
        1.0
      ],
      "min": [
        0.0,
        0.0
      ],
      "type": "VEC2"
    },
    {
      "bufferView": 0,
      "byteOffset": 11016,
      "componentType": 5125,
      "count": 384,
      "type": "SCALAR"
    },
    {
      "bufferView": 2,
      "byteOffset": 44256,
      "componentType": 5126,
      "count": 576,
      "max": [
        1.4611965417861938,
        1.4611958265304565,
        1.6509977579116821
      ],
      "min": [
        -1.4611955881118774,
        -1.4611958265304565,
        -1.0
      ],
      "type": "VEC3"
    },
    {
      "bufferView": 2,
      "byteOffset": 51168,
      "componentType": 5126,
      "count": 576,
      "max": [
        0.9951848387718201,
        0.9951848387718201,
        1.0
      ],
      "min": [
        -0.9951847791671753,
        -0.9951848387718201,
        -1.0
      ],
      "type": "VEC3"
    },
    {
      "bufferView": 1,
      "byteOffset": 14752,
      "componentType": 5126,
      "count": 576,
      "max": [
        1.0,
        1.0
      ],
      "min": [
        0.0,
        0.01000000536441803
      ],
      "type": "VEC2"
    },
    {
      "bufferView": 0,
      "byteOffset": 12552,
      "componentType": 5125,
      "count": 1140,
      "type": "SCALAR"
    },
    {
      "bufferView": 2,
      "byteOffset": 58080,
      "componentType": 5126,
      "count": 252,
      "max": [
        -1.6193264722824097,
        0.009999998845160007,
        0.4244406521320343
      ],
      "min": [
        -2.0142300128936768,
        -0.3957144021987915,
        -0.008660253137350082
      ],
      "type": "VEC3"
    },
    {
      "bufferView": 2,
      "byteOffset": 61104,
      "componentType": 5126,
      "count": 252,
      "max": [
        0.967725396156311,
        0.9991176724433899,
        0.9979286193847656
      ],
      "min": [
        -0.9657022356987,
        -0.9991467595100403,
        -0.9971131086349487
      ],
      "type": "VEC3"
    },
    {
      "bufferView": 1,
      "byteOffset": 19360,
      "componentType": 5126,
      "count": 252,
      "max": [
        1.0,
        1.0
      ],
      "min": [
        0.0,
        0.0
      ],
      "type": "VEC2"
    },
    {
      "bufferView": 0,
      "byteOffset": 17112,
      "componentType": 5125,
      "count": 1260,
      "type": "SCALAR"
    }
  ],
  "asset": {
    "extras": {
      "author": "Guardiano (https://sketchfab.com/guardiano)",
      "license": "CC-BY-NC-4.0 (http://creativecommons.org/licenses/by-nc/4.0/)",
      "source": "https://sketchfab.com/3d-models/oxygen-kit-19a7960da7524803bccded394c450fe3",
      "title": "Oxygen kit"
    },
    "generator": "Sketchfab-14.38.0",
    "version": "2.0"
  },
  "bufferViews": [
    {
      "buffer": 0,
      "byteLength": 22152,
      "name": "floatBufferViews",
      "target": 34963
    },
    {
      "buffer": 0,
      "byteLength": 21376,
      "byteOffset": 22152,
      "byteStride": 8,
      "name": "floatBufferViews",
      "target": 34962
    },
    {
      "buffer": 0,
      "byteLength": 64128,
      "byteOffset": 43528,
      "byteStride": 12,
      "name": "floatBufferViews",
      "target": 34962
    }
  ],
  "buffers": [
    {
      "byteLength": 107656,
      "uri": "scene.bin"
    }
  ],
  "images": [
    {
      "uri": "textures/tubo_baseColor.png"
    },
    {
      "uri": "textures/tapa_baseColor.png"
    },
    {
      "uri": "textures/regulador.001_baseColor.png"
    },
    {
      "uri": "textures/mascarilla_baseColor.png"
    },
    {
      "uri": "textures/Material.004_baseColor.png"
    }
  ],
  "materials": [
    {
      "doubleSided": true,
      "name": "tubo",
      "pbrMetallicRoughness": {
        "baseColorTexture": {
          "index": 0
        },
        "metallicFactor": 0.0,
        "roughnessFactor": 0.781440852043484
      }
    },
    {
      "doubleSided": true,
      "name": "tapa",
      "pbrMetallicRoughness": {
        "baseColorTexture": {
          "index": 1
        },
        "metallicFactor": 0.0,
        "roughnessFactor": 0.7879021681323003
      }
    },
    {
      "doubleSided": true,
      "name": "regulador.001",
      "pbrMetallicRoughness": {
        "baseColorTexture": {
          "index": 2
        },
        "metallicFactor": 0.0,
        "roughnessFactor": 0.8038043289424746
      }
    },
    {
      "alphaMode": "BLEND",
      "doubleSided": true,
      "name": "mascarilla",
      "pbrMetallicRoughness": {
        "baseColorFactor": [
          1.0,
          1.0,
          1.0,
          0.6140571259262879
        ],
        "baseColorTexture": {
          "index": 3
        },
        "metallicFactor": 0.0,
        "roughnessFactor": 0.7737258300203048
      }
    },
    {
      "alphaMode": "BLEND",
      "doubleSided": true,
      "name": "Material.004",
      "pbrMetallicRoughness": {
        "baseColorFactor": [
          1.0,
          1.0,
          1.0,
          0.6018389832061628
        ],
        "baseColorTexture": {
          "index": 4
        },
        "metallicFactor": 0.0,
        "roughnessFactor": 0.7901000420955405
      }
    }
  ],
  "meshes": [
    {
      "name": "tubo_tubo_0",
      "primitives": [
        {
          "attributes": {
            "NORMAL": 1,
            "POSITION": 0,
            "TEXCOORD_0": 2
          },
          "indices": 3,
          "material": 0,
          "mode": 4
        }
      ]
    },
    {
      "name": "Tapa_tapa_0",
      "primitives": [
        {
          "attributes": {
            "NORMAL": 5,
            "POSITION": 4,
            "TEXCOORD_0": 6
          },
          "indices": 7,
          "material": 1,
          "mode": 4
        }
      ]
    },
    {
      "name": "regulador_regulador.001_0",
      "primitives": [
        {
          "attributes": {
            "NORMAL": 9,
            "POSITION": 8,
            "TEXCOORD_0": 10
          },
          "indices": 11,
          "material": 2,
          "mode": 4
        }
      ]
    },
    {
      "name": "Plane.002_mascarilla_0",
      "primitives": [
        {
          "attributes": {
            "NORMAL": 13,
            "POSITION": 12,
            "TEXCOORD_0": 14
          },
          "indices": 15,
          "material": 3,
          "mode": 4
        }
      ]
    },
    {
      "name": "Cylinder_mascarilla_0",
      "primitives": [
        {
          "attributes": {
            "NORMAL": 17,
            "POSITION": 16,
            "TEXCOORD_0": 18
          },
          "indices": 19,
          "material": 3,
          "mode": 4
        }
      ]
    },
    {
      "name": "NurbsPath_Material.004_0",
      "primitives": [
        {
          "attributes": {
            "NORMAL": 21,
            "POSITION": 20,
            "TEXCOORD_0": 22
          },
          "indices": 23,
          "material": 4,
          "mode": 4
        }
      ]
    }
  ],
  "nodes": [
    {
      "children": [
        1
      ],
      "matrix": [
        1.0,
        0.0,
        0.0,
        0.0,
        0.0,
        2.220446049250313e-16,
        -1.0,
        0.0,
        0.0,
        1.0,
        2.220446049250313e-16,
        0.0,
        0.0,
        0.0,
        0.0,
        1.0
      ],
      "name": "Sketchfab_model"
    },
    {
      "children": [
        2
      ],
      "matrix": [
        0.009999999776482582,
        0.0,
        0.0,
        0.0,
        0.0,
        0.0,
        0.009999999776482582,
        0.0,
        0.0,
        -0.009999999776482582,
        0.0,
        0.0,
        0.0,
        0.0,
        0.0,
        1.0
      ],
      "name": "d8323655cc084a13a1c41dc70285e161.fbx"
    },
    {
      "children": [
        3,
        5,
        7,
        9,
        11,
        13
      ],
      "name": "RootNode"
    },
    {
      "children": [
        4
      ],
      "matrix": [
        7.500000476837158,
        0.0,
        0.0,
        0.0,
        -0.0,
        -1.2219051731253695e-06,
        -7.500000476837059,
        0.0,
        0.0,
        24.99999999999967,
        -4.073016984795785e-06,
        0.0,
        -70.26025390625,
        24.973583221435547,
        38.259185791015625,
        1.0
      ],
      "name": "tubo"
    },
    {
      "mesh": 0,
      "name": "tubo_tubo_0"
    },
    {
      "children": [
        6
      ],
      "matrix": [
        7.500004768371582,
        0.0,
        0.0,
        0.0,
        -0.0,
        -1.221906338424876e-06,
        -7.500007629394432,
        0.0,
        0.0,
        7.500000476837059,
        -1.2219051731253695e-06,
        0.0,
        -70.26025390625,
        49.82930374145508,
        38.259185791015625,
        1.0
      ],
      "name": "Tapa"
    },
    {
      "mesh": 1,
      "name": "Tapa_tapa_0"
    },
    {
      "children": [
        8
      ],
      "matrix": [
        4.867679253416908e-07,
        -2.4999997615813725,
        7.450574543433296e-08,
        0.0,
        -7.053248409361631e-07,
        -7.450588268564129e-08,
        -2.49999976158132,
        0.0,
        6.657777786254491,
        1.296317139610657e-06,
        -1.8783586415412302e-06,
        0.0,
        -70.26025390625,
        61.812652587890625,
        38.259185791015625,
        1.0
      ],
      "name": "regulador"
    },
    {
      "mesh": 2,
      "name": "regulador_regulador.001_0"
    },
    {
      "children": [
        10
      ],
      "matrix": [
        -7.564992427825498,
        -6.61352667240992e-07,
        2.464987710869181e-06,
        0.0,
        1.8452941950939808e-06,
        -1.102659071274313e-06,
        5.663166522979329,
        0.0,
        -1.1022536371463655e-05,
        126.08320617675496,
        2.4549306603641894e-05,
        0.0,
        -69.8228988647461,
        15.562444686889648,
        2.2804820787314384e-07,
        1.0
      ],
      "name": "Plane.002"
    },
    {
      "mesh": 3,
      "name": "Plane.002_mascarilla_0"
    },
    {
      "children": [
        12
      ],
      "matrix": [
        7.549789948768648e-08,
        -0.9999999999999954,
        -5.96046659806504e-08,
        0.0,
        1.9470719336833753e-07,
        -5.960465143672877e-08,
        0.9999999999999793,
        0.0,
        -3.499999999999924,
        -2.6424268920188787e-07,
        6.814751608574809e-07,
        0.0,
        -64.60577392578125,
        20.457551956176758,
        -2.280476962823741e-07,
        1.0
      ],
      "name": "Cylinder"
    },
    {
      "mesh": 4,
      "name": "Cylinder_mascarilla_0"
    },
    {
      "children": [
        14
      ],
      "matrix": [
        25.000003814697266,
        0.0,
        0.0,
        0.0,
        -0.0,
        -1.629206793918314e-05,
        -99.99999999999868,
        0.0,
        0.0,
        99.99999999999868,
        -1.629206793918314e-05,
        0.0,
        -11.777511596679688,
        20.505008697509766,
        0.0,
        1.0
      ],
      "name": "NurbsPath"
    },
    {
      "mesh": 5,
      "name": "NurbsPath_Material.004_0"
    }
  ],
  "samplers": [
    {
      "magFilter": 9729,
      "minFilter": 9987,
      "wrapS": 10497,
      "wrapT": 10497
    }
  ],
  "scene": 0,
  "scenes": [
    {
      "name": "Sketchfab_Scene",
      "nodes": [
        0
      ]
    }
  ],
  "textures": [
    {
      "sampler": 0,
      "source": 0
    },
    {
      "sampler": 0,
      "source": 1
    },
    {
      "sampler": 0,
      "source": 2
    },
    {
      "sampler": 0,
      "source": 3
    },
    {
      "sampler": 0,
      "source": 4
    }
  ]
}
